<svg width="28" height="27" viewBox="0 0 28 27" fill="none" xmlns="http://www.w3.org/2000/svg">
<g clip-path="url(#clip0_67_284)">
<path d="M26.2894 7.22227L26.2895 7.22276C26.5485 8.1669 26.6912 9.70327 26.7641 11.077C26.7997 11.7486 26.8176 12.3562 26.8265 12.796C26.8309 13.0157 26.8332 13.1929 26.8343 13.3146C26.8348 13.3755 26.8351 13.4224 26.8352 13.4538L26.8353 13.489L26.8354 13.4975L26.8354 13.4994V13.4996V13.4996V13.4997V13.4999L26.8354 13.5018L26.8353 13.5103L26.8352 13.5455C26.8352 13.5584 26.8351 13.5739 26.835 13.5919C26.8348 13.6178 26.8346 13.6488 26.8343 13.6847C26.8332 13.8064 26.8309 13.9836 26.8265 14.2033C26.8176 14.6431 26.7997 15.2507 26.7641 15.9223C26.6912 17.296 26.5485 18.8324 26.2895 19.7765L26.2894 19.777C26.1797 20.1778 25.9627 20.5469 25.6565 20.846C25.3506 21.145 24.9665 21.3633 24.5414 21.4762C24.0989 21.5915 23.2363 21.6938 22.1097 21.7741C21.0092 21.8525 19.7348 21.9052 18.5191 21.9405C17.305 21.9757 16.1573 21.9934 15.3127 22.0022C14.8906 22.0066 14.5446 22.0088 14.3044 22.0099C14.1843 22.0105 14.0907 22.0107 14.0273 22.0109L13.9553 22.011L13.9371 22.011L13.9327 22.011H13.9316H13.9314L13.9314 23.011L13.9313 22.011H13.9311H13.93L13.9256 22.011L13.9074 22.011L13.8354 22.0109C13.772 22.0107 13.6784 22.0105 13.5583 22.0099C13.3181 22.0088 12.9721 22.0066 12.55 22.0022C11.7054 21.9934 10.5577 21.9757 9.34361 21.9405C8.12795 21.9052 6.85353 21.8525 5.75303 21.7741C4.62643 21.6938 3.76387 21.5915 3.32138 21.4762C2.89618 21.3633 2.51211 21.145 2.2062 20.846C1.90006 20.5469 1.683 20.1778 1.57331 19.777L1.57317 19.7765C1.31425 18.8324 1.17148 17.296 1.09862 15.9223C1.063 15.2507 1.04515 14.6431 1.03622 14.2033C1.03176 13.9836 1.02954 13.8064 1.02844 13.6847C1.02789 13.6238 1.02761 13.5769 1.02748 13.5455L1.02736 13.5103L1.02735 13.5018L1.02734 13.4999L1.02734 13.4997V13.4997V13.4996V13.4996L1.02734 13.4994L1.02735 13.4975L1.02736 13.489L1.02748 13.4538C1.02761 13.4224 1.02789 13.3755 1.02844 13.3146C1.02954 13.1929 1.03176 13.0157 1.03622 12.796C1.04515 12.3562 1.063 11.7486 1.09862 11.077C1.17148 9.70327 1.31425 8.1669 1.57317 7.22276L1.57331 7.22227C1.683 6.82151 1.90006 6.45239 2.2062 6.15324C2.51213 5.85428 2.89625 5.6359 3.3215 5.52304C3.76402 5.4078 4.62653 5.30547 5.75303 5.22522C6.85353 5.14681 8.12795 5.0941 9.34361 5.05881C10.5577 5.02357 11.7054 5.00592 12.55 4.9971C12.9721 4.99268 13.3181 4.99048 13.5583 4.98938C13.6784 4.98883 13.772 4.98855 13.8354 4.98842L13.9074 4.9883L13.9256 4.98828L13.93 4.98828L13.9311 4.98828H13.9313L13.9314 3.98828L13.9314 4.98828H13.9316L13.9327 4.98828L13.9371 4.98828L13.9553 4.9883L14.0273 4.98842C14.0907 4.98855 14.1843 4.98883 14.3044 4.98938C14.5446 4.99048 14.8906 4.99268 15.3127 4.9971C16.1573 5.00592 17.305 5.02357 18.5191 5.05881C19.7348 5.0941 21.0092 5.14681 22.1097 5.22522C23.2362 5.30547 24.0987 5.40781 24.5412 5.52305C24.9665 5.63592 25.3506 5.85429 25.6565 6.15324C25.9627 6.45239 26.1797 6.82151 26.2894 7.22227Z" fill="white" stroke="black" stroke-width="2"/>
<path d="M11.0879 17.5148V9.48535L18.3559 13.5001L11.0879 17.5148Z" fill="#FEFEFE" stroke="black" stroke-width="2"/>
</g>
<defs>
<clipPath id="clip0_67_284">
<rect width="27.808" height="27" fill="white"/>
</clipPath>
</defs>
</svg>
