<svg width="406" height="100" viewBox="0 0 406 100" fill="none" xmlns="http://www.w3.org/2000/svg">
<g clip-path="url(#clip0_66_417)">
<path d="M52.7178 68.1844C51.7556 66.8303 50.8865 65.4763 49.9244 64.2156C44.9117 67.593 38.937 69.5384 32.1862 69.5384C14.0757 69.5229 0 54.7374 0 34.349C0 15.408 13.7808 0.124512 34.8865 0.124512C42.5994 0.124512 49.9244 2.25673 55.6043 5.15157V23.5167C50.2037 20.2328 43.2667 17.9138 36.4229 17.9138C25.6217 17.9138 19.2745 24.9641 19.2745 34.349C19.2745 45.3681 26.0252 51.9359 33.9244 51.9359C36.2367 51.9359 38.4559 51.4534 40.4733 50.4885L27.2667 31.3452H65.0398C65.0398 40.2321 62.9137 48.0606 59.065 54.3483L69.0902 68.1688H52.7022L52.7178 68.1844Z" fill="white"/>
<path d="M201.512 18.8787H183.774V68.1688H165.167V18.8787H147.336V1.47852H201.497V18.8787H201.512Z" fill="white"/>
<path d="M206.51 34.349C206.51 14.9256 220.384 0.124512 240.729 0.124512C246.518 0.124512 252.772 1.57193 257.598 3.70415V22.0693C252.88 19.4546 247.293 17.9138 242.467 17.9138C232.256 17.9138 225.8 24.8707 225.8 34.349C225.8 44.4031 232.256 51.7492 241.893 51.7492C246.812 51.7492 252.787 50.3017 257.598 47.5937V65.9588C252.88 68.091 246.13 69.5384 240.155 69.5384C220.399 69.5384 206.525 54.3639 206.525 34.349H206.51Z" fill="white"/>
<path d="M327.945 1.47852V68.1688H309.338V42.0685H289.101V68.1688H270.494V1.47852H289.101V24.6839H309.338V1.47852H327.945Z" fill="white"/>
<path d="M405.618 68.1844H389.137C379.887 63.6398 370.529 59.0952 361.28 54.6596L356.656 68.1844H338.545C341.152 61.2275 343.744 54.2705 346.444 47.4069C343.744 46.0529 341.137 44.7922 338.545 43.5471V26.147C342.983 28.3726 347.406 30.6916 351.845 33.0105C355.895 22.474 359.837 12.0307 363.794 1.49414H380.756L405.618 68.1844ZM380.648 47.6871C377.761 39.5628 374.859 31.4542 371.973 23.33L366.184 40.341L380.648 47.6871Z" fill="white"/>
<path d="M102.316 16.8398C98.3123 18.1628 94.8982 20.793 92.5703 24.217H109.532L102.316 16.8398Z" fill="#1F52FF"/>
<path d="M91.3437 26.3491C90.0712 28.9016 89.3418 31.7808 89.3418 34.8313C89.3418 36.092 89.4659 37.3215 89.6987 38.5199L101.726 26.3491H91.3437Z" fill="#1F52FF"/>
<path d="M116.78 17.9448C114.219 16.6374 111.301 15.8904 108.229 15.8904C107.065 15.8904 105.932 15.9993 104.83 16.2017L116.78 28.5592V17.9448Z" fill="#1F52FF"/>
<path d="M126.262 29.2129C125.02 25.1975 122.475 21.7579 119.123 19.3767V36.4656L126.262 29.2129Z" fill="#1F52FF"/>
<path d="M114.188 52.8075C118.13 51.4846 121.498 48.901 123.81 45.5237H106.863L114.188 52.8075Z" fill="#1F52FF"/>
<path d="M99.7402 51.7489C102.285 53.0407 105.172 53.7722 108.214 53.7722C109.191 53.7722 110.138 53.6944 111.069 53.5543L99.7402 41.4458V51.7489Z" fill="#1F52FF"/>
<path d="M90.3203 40.8546C91.6239 44.7611 94.169 48.1073 97.4745 50.4107V33.5708L90.3203 40.8546Z" fill="#1F52FF"/>
<path d="M125.035 43.4381C126.354 40.8546 127.099 37.9286 127.099 34.8314C127.099 33.7887 127.006 32.7615 126.851 31.7654L115.041 43.4381H125.035Z" fill="#1F52FF"/>
<path d="M108.229 64.2156C124.411 64.2156 137.529 51.0599 137.529 34.8314C137.529 18.603 124.411 5.44727 108.229 5.44727C92.0476 5.44727 78.9297 18.603 78.9297 34.8314C78.9297 51.0599 92.0476 64.2156 108.229 64.2156Z" stroke="#1F52FF" stroke-width="7" stroke-miterlimit="10"/>
</g>
<path d="M82.1611 91.6667H81.4511V84.5067H82.1611L84.7711 90.8167L87.3811 84.5067H88.1011V91.6667H87.3911V88.2667C87.3911 87.0167 87.4111 86.4667 87.4511 85.9767L85.1211 91.6667H84.4311L82.1011 86.0067C82.1411 86.2767 82.1611 87.0667 82.1611 88.1567V91.6667ZM99.4997 82.7767L98.7397 83.9667H98.1697L98.7797 82.7767H99.4997ZM100.63 91.6667H96.3397V84.5067H100.62V85.1667H97.0597V87.7467H100.29V88.3967H97.0597V91.0067H100.63V91.6667ZM110.772 91.6667H108.592V84.5067H110.752C112.912 84.5067 114.352 85.9467 114.352 88.0867C114.352 90.2267 112.922 91.6667 110.772 91.6667ZM110.722 85.1667H109.312V91.0067H110.742C112.492 91.0067 113.612 89.8667 113.612 88.0867C113.612 86.2967 112.492 85.1667 110.722 85.1667ZM122.872 84.5067V91.6667H122.152V84.5067H122.872ZM131.113 91.6667H130.383L133.013 84.5067H133.903L136.563 91.6667H135.813L135.113 89.7667H131.813L131.113 91.6667ZM133.363 85.5167L132.033 89.1367H134.883L133.543 85.5167C133.513 85.4167 133.463 85.2967 133.453 85.2267C133.443 85.2867 133.403 85.4167 133.363 85.5167ZM143.628 86.3667C143.628 85.1667 144.588 84.3767 146.028 84.3767C147.318 84.3767 148.168 85.0967 148.278 86.2967H147.548C147.468 85.4867 146.918 85.0267 146.018 85.0267C145.008 85.0267 144.348 85.5467 144.348 86.3567C144.348 86.9867 144.718 87.3867 145.468 87.5767L146.698 87.8767C147.818 88.1467 148.398 88.7867 148.398 89.7567C148.398 90.9967 147.438 91.7867 145.958 91.7867C144.568 91.7867 143.628 91.0567 143.538 89.8867H144.278C144.318 90.6367 144.978 91.1267 145.958 91.1267C147.008 91.1267 147.678 90.6167 147.678 89.7967C147.678 89.1567 147.318 88.7367 146.548 88.5567L145.338 88.2567C144.218 87.9867 143.628 87.3467 143.628 86.3667ZM170.164 91.6667L169.524 90.9267C168.964 91.4867 168.184 91.7967 167.244 91.7967C165.734 91.7967 164.754 91.0267 164.754 89.8467C164.754 88.9367 165.294 88.2667 166.584 87.5667C165.934 86.8067 165.674 86.3767 165.674 85.8467C165.674 84.9867 166.324 84.3867 167.294 84.3867C168.214 84.3867 168.844 84.9467 168.844 85.7867C168.844 86.4967 168.474 87.0467 167.524 87.6867L169.474 89.9367C169.674 89.5167 169.784 88.9967 169.784 88.3967H170.454C170.454 89.1967 170.264 89.8867 169.914 90.4367L170.984 91.6667H170.164ZM167.154 87.2567L167.164 87.2667C167.864 86.8267 168.184 86.3667 168.184 85.8067C168.184 85.2867 167.844 84.9667 167.284 84.9667C166.704 84.9667 166.344 85.3067 166.344 85.8467C166.344 86.2067 166.504 86.5067 167.154 87.2567ZM165.464 89.8067C165.464 90.6767 166.144 91.1967 167.284 91.1967C168.074 91.1967 168.694 90.9467 169.124 90.4667L166.944 87.9767C165.864 88.5767 165.464 89.0767 165.464 89.8067ZM190.083 89.0367H188.073V91.6667H187.353V84.5067H190.083C191.463 84.5067 192.333 85.4067 192.333 86.7567C192.333 88.0567 191.453 89.0367 190.083 89.0367ZM189.983 85.1567H188.073V88.3867H189.943C190.983 88.3867 191.583 87.7267 191.583 86.7467C191.583 85.7567 190.973 85.1567 189.983 85.1567ZM200.716 91.6667H199.996V84.5067H202.666C204.116 84.5067 204.996 85.3067 204.996 86.5767C204.996 87.6067 204.456 88.3267 203.536 88.5767L205.066 91.6667H204.266L202.806 88.6967H200.716V91.6667ZM200.716 85.1567V88.0467H202.686C203.676 88.0467 204.256 87.5067 204.256 86.5967C204.256 85.6667 203.646 85.1567 202.666 85.1567H200.716ZM219.233 88.0867C219.233 90.2567 217.823 91.7867 215.823 91.7867C213.813 91.7867 212.413 90.2567 212.413 88.0867C212.413 85.9167 213.823 84.3767 215.823 84.3767C217.833 84.3767 219.233 85.9067 219.233 88.0867ZM218.493 88.0867C218.493 86.2967 217.403 85.0767 215.823 85.0767C214.243 85.0767 213.163 86.2967 213.163 88.0867C213.163 89.8767 214.243 91.0967 215.823 91.0967C217.403 91.0967 218.493 89.8667 218.493 88.0867ZM229.219 91.6667H227.039V84.5067H229.199C231.359 84.5067 232.799 85.9467 232.799 88.0867C232.799 90.2267 231.369 91.6667 229.219 91.6667ZM229.169 85.1667H227.759V91.0067H229.189C230.939 91.0067 232.059 89.8667 232.059 88.0867C232.059 86.2967 230.939 85.1667 229.169 85.1667ZM240.549 89.1767V84.5067H241.269V89.1467C241.269 90.4067 241.959 91.0867 243.209 91.0867C244.429 91.0867 245.119 90.3867 245.119 89.1467V84.5067H245.839V89.1767C245.839 90.7967 244.839 91.7867 243.209 91.7867C241.549 91.7867 240.549 90.8067 240.549 89.1767ZM256.953 91.7767C254.953 91.7767 253.593 90.2867 253.593 88.0867C253.593 85.8867 254.973 84.3867 256.993 84.3867C258.533 84.3867 259.743 85.3167 260.033 86.7367H259.263C258.963 85.7067 258.083 85.0767 256.963 85.0767C255.393 85.0767 254.343 86.2767 254.343 88.0867C254.343 89.8867 255.393 91.0867 256.963 91.0867C258.093 91.0867 258.993 90.4767 259.303 89.5167H260.073C259.743 90.8667 258.493 91.7767 256.953 91.7767ZM266.668 85.1667V84.5067H271.798V85.1667H269.588V91.6667H268.868V85.1667H266.668ZM280.009 84.5067V91.6667H279.289V84.5067H280.009ZM294.63 88.0867C294.63 90.2567 293.22 91.7867 291.22 91.7867C289.21 91.7867 287.81 90.2567 287.81 88.0867C287.81 85.9167 289.22 84.3767 291.22 84.3767C293.23 84.3767 294.63 85.9067 294.63 88.0867ZM293.89 88.0867C293.89 86.2967 292.8 85.0767 291.22 85.0767C289.64 85.0767 288.56 86.2967 288.56 88.0867C288.56 89.8767 289.64 91.0967 291.22 91.0967C292.8 91.0967 293.89 89.8667 293.89 88.0867ZM303.155 91.6667H302.435V84.5067H303.165L307.105 90.4667V84.5067H307.815V91.6667H307.105L303.155 85.7067V91.6667ZM315.556 86.3667C315.556 85.1667 316.516 84.3767 317.956 84.3767C319.246 84.3767 320.096 85.0967 320.206 86.2967H319.476C319.396 85.4867 318.846 85.0267 317.946 85.0267C316.936 85.0267 316.276 85.5467 316.276 86.3567C316.276 86.9867 316.646 87.3867 317.396 87.5767L318.626 87.8767C319.746 88.1467 320.326 88.7867 320.326 89.7567C320.326 90.9967 319.366 91.7867 317.886 91.7867C316.496 91.7867 315.556 91.0567 315.466 89.8867H316.206C316.246 90.6367 316.906 91.1267 317.886 91.1267C318.936 91.1267 319.606 90.6167 319.606 89.7967C319.606 89.1567 319.246 88.7367 318.476 88.5567L317.266 88.2567C316.146 87.9867 315.556 87.3467 315.556 86.3667Z" fill="white"/>
<defs>
<clipPath id="clip0_66_417">
<rect width="405.618" height="69.6629" fill="white"/>
</clipPath>
</defs>
</svg>
