<svg width="745" height="745" viewBox="0 0 745 745" fill="none" xmlns="http://www.w3.org/2000/svg">
<g clip-path="url(#clip0_66_274)">
<rect width="745" height="745" fill="#081B5A"/>
<g clip-path="url(#clip1_66_274)">
<path d="M336.391 261.729C311.532 269.929 290.299 286.157 275.971 307.39H381.189L336.391 261.729Z" fill="white"/>
<path d="M268.203 320.51C260.262 336.305 255.773 354.086 255.773 372.989C255.773 380.758 256.55 388.44 258.018 395.776L332.68 320.51H268.203Z" fill="white"/>
<path d="M426.072 268.548C410.104 260.435 392.15 255.86 372.989 255.86C365.824 255.86 358.747 256.55 351.928 257.759L426.072 334.234V268.548Z" fill="white"/>
<path d="M484.94 338.205C477.258 313.346 461.462 292.026 440.66 277.353V383.002L484.94 338.205Z" fill="white"/>
<path d="M410.019 484.163C434.532 476.049 455.421 459.995 469.749 439.106H364.617L410.105 484.163H410.019Z" fill="white"/>
<path d="M320.338 477.69C336.134 485.631 354.001 490.205 372.99 490.205C379.032 490.205 384.901 489.774 390.685 488.911L320.338 413.989V477.776V477.69Z" fill="white"/>
<path d="M261.902 410.191C270.016 434.359 285.725 455.075 306.355 469.317V365.135L261.902 410.277V410.191Z" fill="white"/>
<path d="M477.344 426.246C485.544 410.277 490.118 392.151 490.118 372.989C490.118 366.516 489.6 360.215 488.565 354.086L415.283 426.332H477.257L477.344 426.246Z" fill="white"/>
<path d="M372.99 554.769C473.384 554.769 554.769 473.384 554.769 372.99C554.769 272.596 473.384 191.21 372.99 191.21C272.596 191.21 191.211 272.596 191.211 372.99C191.211 473.384 272.596 554.769 372.99 554.769Z" stroke="white" stroke-width="60.4205" stroke-miterlimit="10"/>
</g>
<path d="M52.192 69.384H38.944V93H23.392V21.96H52.192C66.688 21.96 76.384 31.464 76.384 45.672C76.384 59.88 66.688 69.384 52.192 69.384ZM48.736 35.784H38.944V55.56H48.736C56.224 55.56 59.968 52.296 59.968 45.672C59.968 39.048 56.224 35.784 48.736 35.784ZM96.9565 93H81.4045V21.96H108.861C126.141 21.96 135.933 30.312 135.933 45C135.933 54.216 131.997 60.744 124.125 64.776L136.605 93H119.613L108.957 68.136H96.9565V93ZM96.9565 35.784V54.504H108.765C115.581 54.504 119.517 51.048 119.517 45C119.517 39.048 115.773 35.784 108.861 35.784H96.9565ZM208.362 57.384C208.362 79.08 194.058 94.152 173.418 94.152C152.874 94.152 138.762 79.176 138.762 57.48C138.762 35.784 152.97 20.712 173.514 20.712C194.154 20.712 208.362 35.688 208.362 57.384ZM191.946 57.384C191.946 43.848 185.034 35.688 173.61 35.688C162.09 35.688 155.178 43.848 155.178 57.384C155.178 71.016 162.09 79.176 173.61 79.176C185.034 79.176 191.946 70.824 191.946 57.384ZM208.926 72.648V67.656H223.902V72.648C223.902 76.392 226.014 79.848 231.966 79.848C237.726 79.848 239.934 76.872 239.934 72.072V21.96H255.486V73.032C255.486 85.224 246.462 94.248 232.158 94.248C216.51 94.248 208.926 84.936 208.926 72.648ZM310.125 93H265.005V21.96H310.125V36.36H280.557V50.28H306.765V63.912H280.557V78.6H310.125V93ZM348.768 94.152C327.456 94.152 314.112 80.04 314.112 57.576C314.112 35.4 328.224 20.808 349.44 20.808C367.2 20.808 379.968 30.984 382.176 46.92H365.76C363.648 39.816 357.6 35.784 349.056 35.784C337.536 35.784 330.528 43.944 330.528 57.48C330.528 70.824 337.632 79.176 349.056 79.176C357.792 79.176 364.224 74.856 366.144 67.848H382.272C379.776 83.688 366.528 94.152 348.768 94.152ZM378.558 36.36V21.96H434.43V36.36H414.27V93H398.718V36.36H378.558Z" fill="white" fill-opacity="0.5"/>
<path d="M372.36 672.4C359.496 672.4 352.872 681.424 352.872 695.152C352.872 709.456 360.936 716.56 372.264 716.56C383.976 716.56 389.16 710.224 389.832 702.832H371.016V689.2H404.424V730H391.08L390.216 723.568C386.376 728.08 378.696 731.056 370.248 731.056C350.376 731.056 336.456 716.464 336.456 694.672C336.456 673.264 350.76 657.808 372.744 657.808C389.736 657.808 402.792 667.792 404.424 683.152H388.104C386.28 675.664 379.752 672.4 372.36 672.4ZM478.131 694.384C478.131 716.08 463.827 731.152 443.187 731.152C422.643 731.152 408.531 716.176 408.531 694.48C408.531 672.784 422.739 657.712 443.283 657.712C463.923 657.712 478.131 672.688 478.131 694.384ZM461.715 694.384C461.715 680.848 454.803 672.688 443.379 672.688C431.859 672.688 424.947 680.848 424.947 694.384C424.947 708.016 431.859 716.176 443.379 716.176C454.803 716.176 461.715 707.824 461.715 694.384ZM476.257 673.36V658.96H532.129V673.36H511.969V730H496.417V673.36H476.257ZM564.462 731.152C543.15 731.152 529.806 717.04 529.806 694.576C529.806 672.4 543.918 657.808 565.134 657.808C582.894 657.808 595.662 667.984 597.87 683.92H581.454C579.342 676.816 573.294 672.784 564.75 672.784C553.23 672.784 546.222 680.944 546.222 694.48C546.222 707.824 553.326 716.176 564.75 716.176C573.486 716.176 579.918 711.856 581.838 704.848H597.966C595.47 720.688 582.222 731.152 564.462 731.152ZM619.119 730H603.567V658.96H619.119V686.992H646.575V658.96H662.127V730H646.575V701.392H619.119V730ZM681.776 730H665.552L690.896 658.96H706.064L731.312 730H714.8L709.808 715.024H686.864L681.776 730ZM696.464 686.8L691.376 701.968H705.392L700.304 686.8C699.536 684.4 698.672 681.616 698.384 679.888C698.096 681.52 697.328 684.208 696.464 686.8Z" fill="white" fill-opacity="0.5"/>
</g>
<defs>
<clipPath id="clip0_66_274">
<rect width="745" height="745" fill="white"/>
</clipPath>
<clipPath id="clip1_66_274">
<rect width="423.979" height="423.979" fill="white" transform="translate(161 161)"/>
</clipPath>
</defs>
</svg>
