<svg width="244" height="113" viewBox="0 0 244 113" fill="none" xmlns="http://www.w3.org/2000/svg">
<path d="M12.7261 52.136C12.7261 48.04 16.1181 45.192 21.0461 45.192C25.7821 45.192 28.7901 47.816 28.9181 52.04H24.8221C24.7261 50.024 23.2861 48.84 20.9821 48.84C18.4541 48.84 16.8221 50.056 16.8221 52.008C16.8221 53.672 17.7181 54.6 19.6701 55.048L23.3501 55.848C27.3501 56.712 29.3021 58.76 29.3021 62.248C29.3021 66.6 25.9101 69.416 20.7581 69.416C15.7661 69.416 12.5021 66.76 12.4061 62.568H16.5021C16.5341 64.552 18.1341 65.736 20.7581 65.736C23.4781 65.736 25.2061 64.552 25.2061 62.6C25.2061 61.032 24.4061 60.104 22.4861 59.688L18.7741 58.856C14.8061 57.992 12.7261 55.72 12.7261 52.136ZM45.9356 69H31.4076V45.608H45.9356V49.384H35.5036V55.4H44.8476V59.016H35.5036V65.224H45.9356V69ZM52.8084 69H48.7764V45.608H52.8404L63.8164 62.184V45.608H67.8484V69H63.8164L52.8084 52.424V69ZM79.8424 69H71.4264V45.608H79.6184C86.5304 45.608 91.2984 50.376 91.2984 57.352C91.2984 64.232 86.6264 69 79.8424 69ZM79.2344 49.384H75.5224V65.224H79.4584C84.1304 65.224 86.9784 62.216 86.9784 57.352C86.9784 52.392 84.0664 49.384 79.2344 49.384Z" fill="#181818"/>
<path d="M104 68V45H200L156 1H188L243 56.5L188 112H156L200 68H104Z" fill="#181818" stroke="#181818"/>
</svg>
