<svg width="23" height="22" viewBox="0 0 23 22" fill="none" xmlns="http://www.w3.org/2000/svg">
<g clip-path="url(#clip0_67_283)">
<path d="M11.5774 1.98086C14.629 1.98086 14.9904 1.99375 16.1905 2.04531C17.3058 2.09258 17.9081 2.27305 18.3096 2.42344C18.8405 2.62109 19.2242 2.86172 19.6213 3.24414C20.0228 3.63086 20.2682 3.99609 20.4734 4.50742C20.6296 4.89414 20.8169 5.47852 20.866 6.54844C20.9195 7.70859 20.9329 8.05664 20.9329 10.9914C20.9329 13.9305 20.9195 14.2785 20.866 15.4344C20.8169 16.5086 20.6296 17.0887 20.4734 17.4754C20.2682 17.9867 20.0183 18.3563 19.6213 18.7387C19.2198 19.1254 18.8405 19.3617 18.3096 19.5594C17.9081 19.7098 17.3014 19.8902 16.1905 19.9375C14.9859 19.9891 14.6245 20.002 11.5774 20.002C8.52581 20.002 8.16444 19.9891 6.96433 19.9375C5.84898 19.8902 5.24669 19.7098 4.84517 19.5594C4.31426 19.3617 3.93058 19.1211 3.53352 18.7387C3.132 18.352 2.88662 17.9867 2.6814 17.4754C2.52525 17.0887 2.33787 16.5043 2.28879 15.4344C2.23526 14.2742 2.22187 13.9262 2.22187 10.9914C2.22187 8.05234 2.23526 7.7043 2.28879 6.54844C2.33787 5.47422 2.52525 4.89414 2.6814 4.50742C2.88662 3.99609 3.13646 3.62656 3.53352 3.24414C3.93505 2.85742 4.31426 2.62109 4.84517 2.42344C5.24669 2.27305 5.85344 2.09258 6.96433 2.04531C8.16444 1.99375 8.52581 1.98086 11.5774 1.98086ZM11.5774 0C8.47674 0 8.0886 0.0128906 6.87064 0.0644531C5.65714 0.116016 4.82286 0.305078 4.10012 0.575781C3.34614 0.859375 2.70816 1.2332 2.07465 1.84766C1.43667 2.45781 1.04853 3.07227 0.754076 3.79414C0.473008 4.49453 0.276707 5.29375 0.223171 6.4625C0.169634 7.63984 0.15625 8.01367 0.15625 11C0.15625 13.9863 0.169634 14.3602 0.223171 15.5332C0.276707 16.702 0.473008 17.5055 0.754076 18.2016C1.04853 18.9277 1.43667 19.5422 2.07465 20.1523C2.70816 20.7625 3.34614 21.1406 4.09565 21.4199C4.82286 21.6906 5.65268 21.8797 6.86618 21.9312C8.08414 21.9828 8.47228 21.9957 11.5729 21.9957C14.6736 21.9957 15.0617 21.9828 16.2797 21.9312C17.4932 21.8797 18.3275 21.6906 19.0502 21.4199C19.7997 21.1406 20.4377 20.7625 21.0712 20.1523C21.7048 19.5422 22.0974 18.9277 22.3873 18.2059C22.6684 17.5055 22.8647 16.7063 22.9182 15.5375C22.9718 14.3645 22.9852 13.9906 22.9852 11.0043C22.9852 8.01797 22.9718 7.64414 22.9182 6.47109C22.8647 5.30234 22.6684 4.49883 22.3873 3.80273C22.1063 3.07227 21.7181 2.45781 21.0802 1.84766C20.4466 1.2375 19.8087 0.859375 19.0591 0.580078C18.3319 0.309375 17.5021 0.120313 16.2886 0.06875C15.0662 0.0128906 14.6781 0 11.5774 0Z" fill="black"/>
<path d="M11.5777 5.34961C8.33869 5.34961 5.71094 7.88047 5.71094 11C5.71094 14.1195 8.33869 16.6504 11.5777 16.6504C14.8166 16.6504 17.4444 14.1195 17.4444 11C17.4444 7.88047 14.8166 5.34961 11.5777 5.34961ZM11.5777 14.6652C9.47635 14.6652 7.7721 13.0238 7.7721 11C7.7721 8.97617 9.47635 7.33477 11.5777 7.33477C13.679 7.33477 15.3832 8.97617 15.3832 11C15.3832 13.0238 13.679 14.6652 11.5777 14.6652Z" fill="black"/>
<path d="M19.0459 5.12578C19.0459 5.85625 18.4303 6.44493 17.6763 6.44493C16.9179 6.44493 16.3066 5.85196 16.3066 5.12578C16.3066 4.39531 16.9223 3.80664 17.6763 3.80664C18.4303 3.80664 19.0459 4.39961 19.0459 5.12578Z" fill="black"/>
</g>
<defs>
<clipPath id="clip0_67_283">
<rect width="22.8423" height="22" fill="white" transform="translate(0.15625)"/>
</clipPath>
</defs>
</svg>
